{
	"asset":{
		"generator":"Khronos glTF Blender I/O v3.5.30",
		"version":"2.0"
	},
	"extensionsUsed":[
		"KHR_materials_emissive_strength"
	],
	"scene":0,
	"scenes":[
		{
			"name":"Scene",
			"nodes":[
				0
			]
		}
	],
	"nodes":[
		{
			"mesh":0,
			"name":"head"
		}
	],
	"materials":[
		{
			"doubleSided":true,
			"name":"chrome",
			"pbrMetallicRoughness":{
				"baseColorFactor":[
					0.800000011920929,
					0.800000011920929,
					0.800000011920929,
					1
				],
				"metallicFactor":0,
				"roughnessFactor":0.21653541922569275
			}
		},
		{
			"doubleSided":true,
			"emissiveFactor":[
				0.9902331091647079,
				1,
				0.3437321334974997
			],
			"extensions":{
				"KHR_materials_emissive_strength":{
					"emissiveStrength":7.991029620170593
				}
			},
			"name":"face",
			"pbrMetallicRoughness":{
				"baseColorFactor":[
					0.7913694381713867,
					0.8000000715255737,
					0.27391916513442993,
					1
				],
				"metallicFactor":0,
				"roughnessFactor":0.5
			}
		},
		{
			"doubleSided":true,
			"name":"orange-plastic",
			"pbrMetallicRoughness":{
				"baseColorFactor":[
					0.8000000715255737,
					0.187022864818573,
					0.013914796523749828,
					1
				],
				"metallicFactor":0,
				"roughnessFactor":0.18503940105438232
			}
		},
		{
			"doubleSided":true,
			"name":"red plastic",
			"pbrMetallicRoughness":{
				"baseColorFactor":[
					0.36723679304122925,
					0,
					0.016799932345747948,
					1
				],
				"metallicFactor":0,
				"roughnessFactor":0.05118110775947571
			}
		},
		{
			"doubleSided":true,
			"name":"rubber",
			"pbrMetallicRoughness":{
				"baseColorFactor":[
					0.017160648480057716,
					0.015814026817679405,
					0.02036752738058567,
					1
				],
				"metallicFactor":0,
				"roughnessFactor":0.9251968860626221
			}
		}
	],
	"meshes":[
		{
			"name":"Cylinder",
			"primitives":[
				{
					"attributes":{
						"POSITION":0,
						"TEXCOORD_0":1,
						"NORMAL":2
					},
					"indices":3,
					"material":0
				},
				{
					"attributes":{
						"POSITION":4,
						"TEXCOORD_0":5,
						"NORMAL":6
					},
					"indices":7,
					"material":1
				},
				{
					"attributes":{
						"POSITION":8,
						"TEXCOORD_0":9,
						"NORMAL":10
					},
					"indices":11,
					"material":2
				},
				{
					"attributes":{
						"POSITION":12,
						"TEXCOORD_0":13,
						"NORMAL":14
					},
					"indices":15,
					"material":3
				},
				{
					"attributes":{
						"POSITION":16,
						"TEXCOORD_0":17,
						"NORMAL":18
					},
					"indices":19,
					"material":4
				}
			]
		}
	],
	"accessors":[
		{
			"bufferView":0,
			"componentType":5126,
			"count":23105,
			"max":[
				1.599372148513794,
				1.8652852773666382,
				1.366429090499878
			],
			"min":[
				-1.5993722677230835,
				-1.0457607507705688,
				-1.5116510391235352
			],
			"type":"VEC3"
		},
		{
			"bufferView":1,
			"componentType":5126,
			"count":23105,
			"type":"VEC2"
		},
		{
			"bufferView":2,
			"componentType":5126,
			"count":23105,
			"type":"VEC3"
		},
		{
			"bufferView":3,
			"componentType":5123,
			"count":113700,
			"type":"SCALAR"
		},
		{
			"bufferView":4,
			"componentType":5126,
			"count":419,
			"max":[
				0.9875406622886658,
				0.7475398182868958,
				-0.41947096586227417
			],
			"min":[
				-0.9875406622886658,
				-0.3387109637260437,
				-1.1642298698425293
			],
			"type":"VEC3"
		},
		{
			"bufferView":5,
			"componentType":5126,
			"count":419,
			"type":"VEC2"
		},
		{
			"bufferView":6,
			"componentType":5126,
			"count":419,
			"type":"VEC3"
		},
		{
			"bufferView":7,
			"componentType":5123,
			"count":1872,
			"type":"SCALAR"
		},
		{
			"bufferView":8,
			"componentType":5126,
			"count":19143,
			"max":[
				1.6576777696609497,
				1.8709369897842407,
				1.4946184158325195
			],
			"min":[
				-1.6576780080795288,
				-0.4326498210430145,
				-0.4454796016216278
			],
			"type":"VEC3"
		},
		{
			"bufferView":9,
			"componentType":5126,
			"count":19143,
			"type":"VEC2"
		},
		{
			"bufferView":10,
			"componentType":5126,
			"count":19143,
			"type":"VEC3"
		},
		{
			"bufferView":11,
			"componentType":5123,
			"count":93540,
			"type":"SCALAR"
		},
		{
			"bufferView":12,
			"componentType":5126,
			"count":3870,
			"max":[
				1.5995938777923584,
				1.90434730052948,
				1.2570955753326416
			],
			"min":[
				-1.599593997001648,
				-0.7759948968887329,
				-1.3857519626617432
			],
			"type":"VEC3"
		},
		{
			"bufferView":13,
			"componentType":5126,
			"count":3870,
			"type":"VEC2"
		},
		{
			"bufferView":14,
			"componentType":5126,
			"count":3870,
			"type":"VEC3"
		},
		{
			"bufferView":15,
			"componentType":5123,
			"count":18024,
			"type":"SCALAR"
		},
		{
			"bufferView":16,
			"componentType":5126,
			"count":4694,
			"max":[
				1.5363256931304932,
				1.182380199432373,
				1.3609800338745117
			],
			"min":[
				-1.5363256931304932,
				-0.40230438113212585,
				-1.5046534538269043
			],
			"type":"VEC3"
		},
		{
			"bufferView":17,
			"componentType":5126,
			"count":4694,
			"type":"VEC2"
		},
		{
			"bufferView":18,
			"componentType":5126,
			"count":4694,
			"type":"VEC3"
		},
		{
			"bufferView":19,
			"componentType":5123,
			"count":22416,
			"type":"SCALAR"
		}
	],
	"bufferViews":[
		{
			"buffer":0,
			"byteLength":277260,
			"byteOffset":0,
			"target":34962
		},
		{
			"buffer":0,
			"byteLength":184840,
			"byteOffset":277260,
			"target":34962
		},
		{
			"buffer":0,
			"byteLength":277260,
			"byteOffset":462100,
			"target":34962
		},
		{
			"buffer":0,
			"byteLength":227400,
			"byteOffset":739360,
			"target":34963
		},
		{
			"buffer":0,
			"byteLength":5028,
			"byteOffset":966760,
			"target":34962
		},
		{
			"buffer":0,
			"byteLength":3352,
			"byteOffset":971788,
			"target":34962
		},
		{
			"buffer":0,
			"byteLength":5028,
			"byteOffset":975140,
			"target":34962
		},
		{
			"buffer":0,
			"byteLength":3744,
			"byteOffset":980168,
			"target":34963
		},
		{
			"buffer":0,
			"byteLength":229716,
			"byteOffset":983912,
			"target":34962
		},
		{
			"buffer":0,
			"byteLength":153144,
			"byteOffset":1213628,
			"target":34962
		},
		{
			"buffer":0,
			"byteLength":229716,
			"byteOffset":1366772,
			"target":34962
		},
		{
			"buffer":0,
			"byteLength":187080,
			"byteOffset":1596488,
			"target":34963
		},
		{
			"buffer":0,
			"byteLength":46440,
			"byteOffset":1783568,
			"target":34962
		},
		{
			"buffer":0,
			"byteLength":30960,
			"byteOffset":1830008,
			"target":34962
		},
		{
			"buffer":0,
			"byteLength":46440,
			"byteOffset":1860968,
			"target":34962
		},
		{
			"buffer":0,
			"byteLength":36048,
			"byteOffset":1907408,
			"target":34963
		},
		{
			"buffer":0,
			"byteLength":56328,
			"byteOffset":1943456,
			"target":34962
		},
		{
			"buffer":0,
			"byteLength":37552,
			"byteOffset":1999784,
			"target":34962
		},
		{
			"buffer":0,
			"byteLength":56328,
			"byteOffset":2037336,
			"target":34962
		},
		{
			"buffer":0,
			"byteLength":44832,
			"byteOffset":2093664,
			"target":34963
		}
	],
	"buffers":[
		{
			"byteLength":2138496,
			"uri":"data:application/octet-stream;base64,"
		}
	]
}
